<?xml version="1.0" standalone="no"?><!DOCTYPE svg PUBLIC "-//W3C//DTD SVG 20010904//EN"
 "http://www.w3.org/TR/2001/REC-SVG-20010904/DTD/svg10.dtd"><svg version="1.0" xmlns="http://www.w3.org/2000/svg"
 width="204.000000pt" height="204.000000pt" viewBox="0 0 204.000000 204.000000"
 preserveAspectRatio="xMidYMid meet">
<g transform="translate(0.000000,204.000000) scale(0.100000,-0.100000)"
fill="#000000" stroke="none">
<path d="M291 1906 c-47 -17 -108 -71 -131 -116 -19 -38 -20 -61 -20 -802 0
-757 0 -763 21 -798 48 -80 107 -118 195 -127 l54 -6 0 932 0 931 -42 -1 c-24
0 -58 -6 -77 -13z"/>
<path d="M640 1520 l0 -400 320 0 c176 0 320 2 320 5 0 2 -25 46 -55 97 -97
162 -108 191 -108 272 0 221 201 370 420 312 95 -25 158 -78 210 -179 24 -45
28 -64 28 -137 0 -103 -3 -108 -177 -379 l-28 -44 0 -504 0 -503 73 0 c125 0
188 30 245 114 l32 48 0 765 c0 740 -1 765 -20 802 -25 50 -89 105 -139 119
-27 9 -198 12 -580 12 l-541 0 0 -400z"/>
<path d="M1389 1595 c-45 -25 -62 -101 -34 -155 20 -38 43 -50 98 -50 39 0 49
5 76 35 45 51 44 104 -3 151 -27 27 -42 34 -72 34 -22 -1 -51 -7 -65 -15z"/>
<path d="M640 482 l0 -422 350 0 350 0 0 415 0 415 -252 0 c-139 0 -297 3
-350 7 l-98 6 0 -421z"/>
</g>
</svg>
